<?xml version="1.0" standalone="no"?><!DOCTYPE svg PUBLIC "-//W3C//DTD SVG 1.1//EN" "http://www.w3.org/Graphics/SVG/1.1/DTD/svg11.dtd"><svg t="1672470278913" class="icon" viewBox="0 0 1024 1024" version="1.1" xmlns="http://www.w3.org/2000/svg" p-id="3200" xmlns:xlink="http://www.w3.org/1999/xlink" width="200" height="200"><path d="M782 964.1c-17.7 0-32.1-14.4-32.1-32.1 0-189.1-153.8-342.9-342.9-342.9S64.2 743 64.2 932.1c0 17.7-14.4 32.1-32.1 32.1C14.4 964.1 0 949.8 0 932.1c0-54.9 10.8-108.2 32-158.4 20.5-48.5 49.8-92 87.2-129.4s80.9-66.7 129.4-87.2c50.2-21.2 103.5-32 158.4-32s108.2 10.8 158.4 32c48.5 20.5 92 49.8 129.4 87.2s66.7 80.9 87.2 129.4c21.2 50.2 32 103.5 32 158.4 0 17.7-14.3 32-32 32zM720.3 572.8c-13.3 0-25.8-8.4-30.4-21.7-5.7-16.8 3.2-35 20-40.7 83.7-28.6 137.8-96.7 137.8-173.4 0-87.9-73.3-164.8-174.2-182.8-17.4-3.1-29.1-19.8-26-37.2s19.8-29.1 37.2-26c62.6 11.2 119.7 41.2 160.9 84.7 42.7 45 66.2 102.3 66.2 161.3 0 52.2-17.9 102.2-51.7 144.7-32.4 40.7-77.2 71.6-129.5 89.5-3.4 1.1-6.9 1.6-10.3 1.6z" fill="#1afa29" p-id="3201"></path><path d="M991.9 889.4c-17.7 0-32.1-14.4-32.1-32.1 0-151.9-123.6-275.4-275.4-275.4-17.7 0-32.1-14.4-32.1-32.1s14.4-32.1 32.1-32.1c45.8 0 90.3 9 132.2 26.7 40.4 17.1 76.8 41.6 107.9 72.8 31.2 31.2 55.7 67.5 72.8 107.9 17.7 41.9 26.7 86.4 26.7 132.2 0 17.7-14.4 32.1-32.1 32.1zM407 129.1c52.9 0 102.6 20.6 140 58 37.4 37.4 58 87.1 58 140s-20.6 102.6-58 140c-37.4 37.4-87.1 58-140 58s-102.6-20.6-140-58-58-87.1-58-140 20.6-102.6 58-140 87.1-58 140-58m0-64c-144.7 0-262 117.3-262 262s117.3 262 262 262 262-117.3 262-262-117.3-262-262-262z" fill="#1afa29" p-id="3202"></path></svg>