<?xml version="1.0" standalone="no"?><!DOCTYPE svg PUBLIC "-//W3C//DTD SVG 1.1//EN" "http://www.w3.org/Graphics/SVG/1.1/DTD/svg11.dtd"><svg class="icon" width="200px" height="200.00px" viewBox="0 0 1024 1024" version="1.1" xmlns="http://www.w3.org/2000/svg"><path d="M512 198.4c-102.5024 0-185.6 83.0976-185.6 185.6S409.4976 569.6 512 569.6 697.6 486.5024 697.6 384 614.5024 198.4 512 198.4z m0 38.4c81.2928 0 147.2 65.9072 147.2 147.2S593.2928 531.2 512 531.2 364.8 465.2928 364.8 384 430.7072 236.8 512 236.8z" fill="#6F6D6D" /><path d="M512 531.2a19.2 19.2 0 0 1 0 38.4c-133.376 0-245.1456 100.0576-260.5952 231.3984a19.2 19.2 0 0 1-38.1312-4.48C230.9888 645.888 359.0912 531.2 512 531.2z" fill="#6F6D6D" /><path d="M800 672a19.2 19.2 0 0 1 1.8432 38.3104l-1.8432 0.0896h-204.8a19.2 19.2 0 0 1-1.8432-38.3104l1.8432-0.0896h204.8z" fill="#69C0FF" /><path d="M716.8 793.6a19.2 19.2 0 0 1-38.3104 1.8432L678.4 793.6V588.8a19.2 19.2 0 0 1 38.3104-1.8432L716.8 588.8v204.8z" fill="#69C0FF" /></svg>