<?xml version="1.0" standalone="no"?><!DOCTYPE svg PUBLIC "-//W3C//DTD SVG 1.1//EN" "http://www.w3.org/Graphics/SVG/1.1/DTD/svg11.dtd"><svg t="1682086811449" class="icon" viewBox="0 0 1024 1024" version="1.1" xmlns="http://www.w3.org/2000/svg" p-id="13711" xmlns:xlink="http://www.w3.org/1999/xlink" width="200" height="200"><path d="M767.420235 548.381113m0.072606 31.999918l0.726056 319.999176q0.072606 31.999918-31.927312 32.072523l0 0q-31.999918 0.072606-32.072523-31.927312l-0.726056-319.999176q-0.072606-31.999918 31.927312-32.072523l0 0q31.999918-0.072606 32.072523 31.927312Z" fill="#ffffff" p-id="13712"></path><path d="M927.837469 772.012308m-31.999918 0.072606l-319.999176 0.726056q-31.999918 0.072606-32.072523-31.927312l0 0q-0.072606-31.999918 31.927312-32.072523l319.999176-0.726057q31.999918-0.072606 32.072523 31.927312l0 0q0.072606 31.999918-31.927312 32.072524Z" fill="#ffffff" p-id="13713"></path><path d="M500.266667 143.573333a181.333333 181.333333 0 0 1 0.373333 362.666667h-0.426667a181.333333 181.333333 0 0 1-0.373333-362.666667h0.426667m0-64h-0.586667a245.333333 245.333333 0 0 0 0.533333 490.666667h0.533334a245.333333 245.333333 0 0 0-0.48-490.666667zM96.042667 912.474667l64-0.149334a32 32 0 0 1-31.925334 32.074667 32 32 0 0 1-32.074666-31.925333z" fill="#ffffff" p-id="13714"></path><path d="M500.64 506.24A405.333333 405.333333 0 0 0 96 912.48h64a341.706667 341.706667 0 0 1 340.533333-342.08z" fill="#ffffff" p-id="13715"></path></svg>