<svg t="1682232399067" class="icon" viewBox="0 0 1024 1024" version="1.1" xmlns="http://www.w3.org/2000/svg" p-id="23608" width="200" height="200"><path d="M816.14 878.25H197.42c-42.92 0-76.18-26.62-86.82-69.48-5.62-22.64-4.09-47.38 4.29-69.67 9.24-24.56 26.39-44.47 48.31-56.06 0.72-0.38 1.46-0.73 2.21-1.04l214.82-90.18c-15.65-16.96-29.82-35.74-41.86-55.62-23.28-38.41-37.76-79-43.04-120.65-0.15-1.15-0.22-2.3-0.22-3.46 0-70.35 21.04-136.3 59.24-185.7 40.2-52 95.36-80.63 155.3-80.63s115.1 28.64 155.3 80.63c38.2 49.41 59.24 115.36 59.24 185.7 0 1.41-0.11 2.82-0.32 4.21-10.63 68.61-49.98 131.08-91.01 175.3l215.3 90.4c0.43 0.18 0.85 0.37 1.26 0.57 24 11.53 42.31 30.09 52.95 53.68 9.69 21.47 12.18 45.78 7.01 68.46-10.18 44.67-46.78 73.54-93.24 73.54zM187.97 732.18c-21.84 12.25-29.37 41.63-23.99 63.35 3.14 12.65 11.49 27.72 33.43 27.72h618.72c29.43 0 37.5-21.51 39.61-30.76 4.5-19.77-2.87-46.91-29.59-60.07L573.03 626.14a27.504 27.504 0 0 1-16.53-21.15 27.507 27.507 0 0 1 9.37-25.16c42.45-36.07 91.63-99.47 103.3-169.88-0.84-117.48-70.61-209.2-159.53-209.2-89.02 0-158.85 91.92-159.54 209.58 8.47 62.85 44.66 126.05 97.06 169.37a27.474 27.474 0 0 1 9.68 25.21 27.525 27.525 0 0 1-16.56 21.34L187.97 732.18z" fill="#2c2c2c" p-id="23609"></path><path d="M889.23 270.37h-114.3c-15.19 0-27.5-12.31-27.5-27.5s12.31-27.5 27.5-27.5h114.3c15.19 0 27.5 12.31 27.5 27.5s-12.31 27.5-27.5 27.5zM889.23 418.96h-114.3c-15.19 0-27.5-12.31-27.5-27.5s12.31-27.5 27.5-27.5h114.3c15.19 0 27.5 12.31 27.5 27.5s-12.31 27.5-27.5 27.5zM889.23 567.56H832.6c-15.19 0-27.5-12.31-27.5-27.5s12.31-27.5 27.5-27.5h56.63c15.19 0 27.5 12.31 27.5 27.5s-12.31 27.5-27.5 27.5z" fill="#2c2c2c" p-id="23610"></path></svg>