<?xml version="1.0" standalone="no"?><!DOCTYPE svg PUBLIC "-//W3C//DTD SVG 1.1//EN" "http://www.w3.org/Graphics/SVG/1.1/DTD/svg11.dtd"><svg class="icon" width="200px" height="200.00px" viewBox="0 0 1024 1024" version="1.1" xmlns="http://www.w3.org/2000/svg"><path d="M287.209361 364.584185C289.501793 366.875454 291.968277 368.994027 295.570045 372.315108 309.475688 358.137413 322.344047 344.543675 335.786814 331.544963 341.079483 326.427454 341.621594 323.429072 335.999502 317.849932 279.674326 261.958352 223.657735 205.758187 167.540044 149.657379 165.632304 147.750525 163.582782 145.986754 160.56273 143.198983 147.123062 156.831744 134.315174 170.445409 120.768152 183.277236 114.80933 188.921136 114.382959 192.129024 120.527346 198.217949 176.28434 253.475757 231.685867 309.090858 287.209361 364.584185L287.209361 364.584185ZM699.522491 681.504159C695.703884 677.668864 693.284283 678.644708 690.045315 681.934793 677.294744 694.888669 664.372169 707.673448 651.575739 720.58249 650.308082 721.86166 649.465745 723.562053 648.275248 725.286248 650.670855 727.822723 652.683873 730.062793 654.811579 732.190499 686.551953 763.941418 718.309016 795.675454 750.058745 827.416963 774.407943 851.760765 798.683136 876.179843 823.232484 900.319675 825.127715 902.183632 830.478751 903.749245 831.620262 902.677642 846.650728 888.581314 861.212091 873.986546 875.935024 859.474252 874.67675 857.342395 874.483878 856.787774 874.110672 856.413599 815.900727 798.124198 757.649048 739.875757 699.522491 681.504159L699.522491 681.504159ZM700.401304 352.417405C705.555318 357.915454 708.642096 358.101988 714.136991 352.567683 769.294585 297.00655 824.73782 241.729093 880.09764 186.369162 881.267297 185.199588 883.029103 184.187212 883.430455 182.790421 883.991303 180.837902 884.440618 177.712488 883.369984 176.605461 869.413279 162.173149 855.180288 148.008185 840.588703 133.347549 838.591322 134.716388 837.578032 135.205418 836.826416 135.955982 779.489003 193.237158 722.196397 250.562062 664.800616 307.785673 660.967424 311.607407 662.096426 314.07497 665.390661 317.3014 677.200924 328.867895 689.101852 340.364371 700.401304 352.417405L700.401304 352.417405ZM322.606772 663.728903C317.435018 658.207882 314.337806 658.093305 308.865827 663.604916 253.704081 719.158576 198.260847 774.43382 142.898951 829.789599 141.729294 830.959173 139.965412 831.972656 139.567187 833.368341 139.010491 835.32086 138.573686 838.442122 139.647446 839.553578 153.601052 853.986719 167.831939 868.15279 182.417242 882.811212 184.428212 881.425768 185.438374 880.933694 186.18999 880.18313 243.527403 822.904998 300.821034 765.582308 358.216815 708.362572 362.057313 704.534749 360.901189 702.066079 357.61426 698.845738 345.806101 687.277582 333.900994 675.786088 322.606772 663.728903L322.606772 663.728903ZM544.617334 124.765046C544.61631 89.493781 544.498494 54.221409 544.724715 18.951251 544.765371 12.658909 543.139093 10.200756 536.367159 10.388397 519.570736 10.854179 502.749295 10.74486 485.946589 10.431018 480.171257 10.323636 478.291664 12.238793 478.303149 17.987861 478.444931 89.081967 478.453262 160.175796 478.29897 231.268795 478.285409 237.341392 480.7905 238.629694 486.2239 238.544176 502.477187 238.286793 518.751343 238.063727 534.990045 238.623606 542.624131 238.886248 544.860243 236.541565 544.779984 228.923281 544.413004 194.207744 544.618385 159.484734 544.617334 124.765046L544.617334 124.765046ZM241.970979 533.654611C241.646758 517.131126 241.476829 500.584116 242.03145 484.073085 242.28269 476.596501 239.749452 474.782637 232.629331 474.848228 197.643707 475.17148 162.653931 474.995186 127.666231 474.996293 92.402273 474.998507 57.138342 475.116129 21.876459 474.88476 15.762321 474.844077 13.707596 476.697794 13.844176 482.906555 14.214255 499.704029 14.131892 516.517279 13.878576 533.318905 13.796214 538.733651 15.011729 541.262654 21.125895 541.249093 92.204226 541.087467 163.282557 541.098814 234.360887 541.237469 240.049678 541.247986 242.085639 539.493625 241.970979 533.654611L241.970979 533.654611ZM1009.189943 483.66044C1009.388018 476.626667 1006.950704 474.812803 1000.229833 474.867048 965.244236 475.145465 930.254461 474.996293 895.266761 474.9974 860.002802 474.998507 824.738844 475.12969 789.476989 474.877565 783.03863 474.831623 780.825462 476.677867 781.003721 483.320583 781.448856 499.838533 781.351908 516.380561 781.040197 532.904047 780.93074 538.713725 782.216109 541.284518 788.723269 541.266806 859.8016 541.075843 930.879931 541.106287 1001.958262 541.223078 1007.28118 541.232211 1009.221217 539.515489 1009.133651 534.070576 1008.862623 517.26895 1008.71561 500.451549 1009.189943 483.66044L1009.189943 483.66044ZM544.61631 891.027843C544.615258 856.031952 544.484961 821.035783 544.734097 786.041828 544.779956 779.617197 542.9473 777.374914 536.291051 777.549824 519.493577 777.991805 502.673187 777.907394 485.870509 777.584419 479.996125 777.470672 478.297918 779.582879 478.308352 785.233975 478.442828 856.328081 478.436573 927.42191 478.321913 998.514909 478.313555 1003.828362 480.021144 1005.790291 485.475411 1005.702836 502.280164 1005.432721 519.100582 1005.295173 535.897005 1005.75708 542.86181 1005.948873 544.803951 1003.628267 544.749734 996.841638 544.466197 961.57148 544.617334 926.299108 544.61631 891.027843L544.61631 891.027843Z" fill="#000000" fill-opacity="0.2" /></svg>