<?xml version="1.0" standalone="no"?><!DOCTYPE svg PUBLIC "-//W3C//DTD SVG 1.1//EN" "http://www.w3.org/Graphics/SVG/1.1/DTD/svg11.dtd"><svg class="icon" width="200px" height="200.00px" viewBox="0 0 1024 1024" version="1.1" xmlns="http://www.w3.org/2000/svg"><path d="M698.624 501.376a170.112 170.112 0 0 1-170.112 170.112h-58.496a170.112 170.112 0 0 1-170.112-170.112V250.048a170.048 170.048 0 0 1 170.112-170.112h58.496a170.112 170.112 0 0 1 170.112 170.112v251.328z" fill="#979FCB" /><path d="M725.76 410.624v104.512c0 104.448-87.68 189.12-195.904 189.12H462.464c-108.224 0-195.968-84.672-195.968-189.12V410.624h-31.808v123.904c0 118.912 99.904 215.296 223.04 215.296h76.736c123.264 0 223.104-96.384 223.104-215.296V410.624h-31.808z" fill="#394B97" /><path d="M453.184 719.104h92.16v162.944h-92.16z" fill="#394B97" /><path d="M734.656 944v-12.224c0-40.896-38.976-74.048-87.232-74.048h-296.32c-48.128 0-87.232 33.216-87.232 74.048v12.224h470.784z" fill="#394B97" /><path d="M520.896 225.088h174.464v41.152H520.896zM298.944 225.088h174.464v41.152H298.944zM520.896 297.536h174.464v41.152H520.896zM298.944 297.536h174.464v41.152H298.944zM520.896 375.68h174.464v41.216H520.896zM298.944 375.68h174.464v41.216H298.944zM520.896 448.256h174.464v41.088H520.896zM298.944 448.256h174.464v41.088H298.944z" fill="#5161A4" /></svg>