<svg t="1682233069177" class="icon" viewBox="0 0 1024 1024" version="1.1" xmlns="http://www.w3.org/2000/svg" p-id="29025" width="200" height="200"><path d="M651.35 570.164c70.724-45.652 117.549-125.149 117.549-215.588 0-141.619-114.806-256.424-256.425-256.424-141.619 0-256.424 114.805-256.424 256.424 0 90.688 47.079 170.379 118.129 215.971-150.69 53.654-261.205 191.995-274.264 357.747h64.183c15.778-177.399 157.756-312.373 338.533-317.5 3.268 0.123 6.545 0.206 9.843 0.206 3.564 0 7.106-0.093 10.635-0.236 181.192 4.717 323.6 139.845 339.402 317.53h64.184c-13.091-166.148-124.104-304.752-275.345-358.13zM320.063 354.576c0-106.266 86.146-192.412 192.411-192.412s192.412 86.146 192.412 192.412c0 102.905-80.785 186.941-182.395 192.153a425.194 425.194 0 0 0-9.187-0.104c-3.455 0-6.899 0.043-10.334 0.127-101.85-4.954-182.907-89.097-182.907-192.176z" p-id="29026" fill="#1afa29"></path></svg>