<?xml version="1.0" standalone="no"?><!DOCTYPE svg PUBLIC "-//W3C//DTD SVG 1.1//EN" "http://www.w3.org/Graphics/SVG/1.1/DTD/svg11.dtd"><svg class="icon" width="200px" height="191.40px" viewBox="0 0 1070 1024" version="1.1" xmlns="http://www.w3.org/2000/svg"><path d="M847.058824 867.137255H224.627451c-64 0-115.45098-45.176471-115.45098-101.647059V232.156863c0-56.470588 51.45098-101.647059 115.45098-101.647059h84.078431c10.039216 0 18.823529 8.784314 18.82353 18.823529s-8.784314 18.823529-18.82353 18.82353h-84.078431c-42.666667 0-77.803922 28.862745-77.803922 64V765.490196c0 35.137255 35.137255 64 77.803922 64h622.431373c42.666667 0 77.803922-28.862745 77.803921-64V232.156863c0-35.137255-35.137255-64-77.803921-64h-464.313726c-10.039216 0-18.823529-8.784314-18.823529-18.82353s8.784314-18.823529 18.823529-18.823529h464.313726c64 0 115.45098 45.176471 115.45098 101.647059V765.490196c-1.254902 56.470588-52.705882 101.647059-115.45098 101.647059z" fill="#0B3155" /><path d="M328.784314 455.529412c-23.843137 0-46.431373-8.784314-64-23.843137-20.078431-17.568627-32.627451-41.411765-35.137255-67.764706-5.019608-55.215686 36.392157-104.156863 91.607843-109.176471 26.352941-2.509804 52.705882 6.27451 74.039216 22.588235s32.627451 41.411765 35.137255 67.764706c2.509804 26.352941-6.27451 52.705882-22.588236 74.039216-17.568627 20.078431-41.411765 32.627451-67.764706 35.137255-6.27451 1.254902-8.784314 1.254902-11.294117 1.254902z m-6.27451-163.137255c-35.137255 2.509804-60.235294 33.882353-57.72549 67.764706 1.254902 16.313725 8.784314 31.372549 22.588235 42.666666 12.54902 11.294118 28.862745 16.313725 46.431373 15.058824 16.313725-1.254902 31.372549-8.784314 42.666666-22.588235 11.294118-12.54902 16.313725-28.862745 15.058824-46.431373-1.254902-16.313725-8.784314-31.372549-22.588236-42.666667-12.54902-10.039216-28.862745-15.058824-46.431372-13.803921zM759.215686 642.509804c-5.019608 0-10.039216-1.254902-13.803921-5.019608L609.882353 501.960784c-7.529412-7.529412-20.078431-7.529412-27.607843 0L446.745098 637.490196c-7.529412 7.529412-18.823529 7.529412-26.352941 0s-7.529412-18.823529 0-26.352941l135.529412-135.529412c11.294118-11.294118 25.098039-16.313725 40.156862-16.313725 15.058824 0 30.117647 6.27451 40.156863 16.313725l135.529412 135.529412c7.529412 7.529412 7.529412 18.823529 0 26.352941-2.509804 3.764706-7.529412 5.019608-12.54902 5.019608z" fill="#0B3155" /><path d="M466.823529 692.705882c-5.019608 0-10.039216-1.254902-13.803921-5.019607l-87.843137-87.843138c-1.254902-1.254902-3.764706-1.254902-3.764706-1.254902-1.254902 0-2.509804 0-3.764706 1.254902l-87.843137 87.843138c-7.529412 7.529412-18.823529 7.529412-26.352942 0-7.529412-7.529412-7.529412-18.823529 0-26.352942l87.843138-87.843137c17.568627-17.568627 45.176471-17.568627 61.490196 0l87.843137 87.843137c7.529412 7.529412 7.529412 18.823529 0 26.352942-3.764706 2.509804-8.784314 5.019608-13.803922 5.019607z" fill="#0B3155" /></svg>