<?xml version="1.0" standalone="no"?><!DOCTYPE svg PUBLIC "-//W3C//DTD SVG 1.1//EN" "http://www.w3.org/Graphics/SVG/1.1/DTD/svg11.dtd"><svg class="icon" width="200px" height="200.00px" viewBox="0 0 1024 1024" version="1.1" xmlns="http://www.w3.org/2000/svg"><path d="M482.474667 780.8c0 16.512 13.226667 29.866667 29.525333 29.866667a29.696 29.696 0 0 0 29.525333-29.866667V243.2c0-16.512-13.226667-29.866667-29.525333-29.866667a29.696 29.696 0 0 0-29.525333 29.866667v537.6zM312.618667 682.666667c0 16.469333 13.226667 29.866667 29.525333 29.866666a29.696 29.696 0 0 0 29.568-29.866666V341.333333c0-16.512-13.226667-29.866667-29.568-29.866666a29.696 29.696 0 0 0-29.525333 29.866666v341.333334zM157.525333 640A29.696 29.696 0 0 1 128 610.133333V413.866667c0-16.469333 13.226667-29.866667 29.525333-29.866667 16.341333 0 29.568 13.397333 29.568 29.866667v196.266666c0 16.512-13.226667 29.866667-29.568 29.866667zM866.474667 597.418667a29.696 29.696 0 0 1-29.568-29.866667v-110.933333c0-16.512 13.226667-29.866667 29.568-29.866667 16.298667 0 29.525333 13.354667 29.525333 29.866667v110.933333c0 16.469333-13.226667 29.866667-29.525333 29.866667zM689.237333 682.666667a29.696 29.696 0 0 1-29.568-29.866667V371.2c0-16.512 13.226667-29.866667 29.568-29.866667 16.298667 0 29.525333 13.354667 29.525334 29.866667v281.6c0 16.469333-13.226667 29.866667-29.525334 29.866667z" fill="#67686F" /></svg>