<svg width="15" height="15" viewBox="0 0 15 15" fill="none" xmlns="http://www.w3.org/2000/svg">
<path d="M8.48913 7.5L13.7645 2.20109C14.0471 1.91848 14.0471 1.47101 13.7645 1.21196C13.4819 0.929348 13.0344 0.929348 12.7754 1.21196L7.5 6.51087L2.20109 1.21196C1.91848 0.929348 1.47101 0.929348 1.21196 1.21196C0.929348 1.49457 0.929348 1.94203 1.21196 2.20109L6.48732 7.5L1.21196 12.7989C0.929348 13.0815 0.929348 13.529 1.21196 13.788C1.35326 13.9293 1.54167 14 1.70652 14C1.87138 14 2.05978 13.9293 2.20109 13.788L7.5 8.48913L12.7989 13.788C12.9402 13.9293 13.1286 14 13.2935 14C13.4583 14 13.6467 13.9293 13.788 13.788C14.0707 13.5054 14.0707 13.058 13.788 12.7989L8.48913 7.5Z" fill="white" stroke="white" stroke-width="0.25"/>
</svg>
